<svg xmlns="http://www.w3.org/2000/svg" width="20" height="20" viewBox="0 0 20 20" fill="none"><path d="M16.5124 6.59244V3.50244C16.5124 2.95244 16.0624 2.50244 15.5124 2.50244H12.4224L10.2124 0.292444C10.1199 0.19974 10.01 0.126193 9.88907 0.0760114C9.7681 0.02583 9.63841 0 9.50744 0C9.37648 0 9.24679 0.02583 9.12582 0.0760114C9.00485 0.126193 8.89496 0.19974 8.80244 0.292444L6.59244 2.50244H3.50244C2.95244 2.50244 2.50244 2.95244 2.50244 3.50244V6.59244L0.292444 8.80244C0.19974 8.89496 0.126193 9.00485 0.0760114 9.12582C0.02583 9.24679 0 9.37648 0 9.50744C0 9.63841 0.02583 9.7681 0.0760114 9.88907C0.126193 10.01 0.19974 10.1199 0.292444 10.2124L2.50244 12.4224V15.5124C2.50244 16.0624 2.95244 16.5124 3.50244 16.5124H6.59244L8.80244 18.7224C9.00244 18.9224 9.25244 19.0124 9.51244 19.0124C9.77244 19.0124 10.0224 18.9124 10.2224 18.7224L12.4324 16.5124H15.5224C16.0724 16.5124 16.5224 16.0624 16.5224 15.5124V12.4224L18.7324 10.2124C18.8251 10.1199 18.8987 10.01 18.9489 9.88907C18.9991 9.7681 19.0249 9.63841 19.0249 9.50744C19.0249 9.37648 18.9991 9.24679 18.9489 9.12582C18.8987 9.00485 18.8251 8.89496 18.7324 8.80244L16.5224 6.59244H16.5124ZM8.51244 12.9224L5.80244 10.2124L7.21244 8.80244L8.50244 10.0924L11.7924 6.80244L13.2024 8.21244L8.49244 12.9224H8.51244Z" fill="url(#paint0_linear_5_155)"/><defs><linearGradient id="paint0_linear_5_155" x1="0" y1="9.50622" x2="19.0249" y2="9.50622" gradientUnits="userSpaceOnUse"><stop stop-color="#E5CB9A"/><stop offset="1" stop-color="#CA9434"/></linearGradient></defs></svg>