<?xml version="1.0" encoding="UTF-8"?>
<svg id="Camada_2" data-name="Camada 2" xmlns="http://www.w3.org/2000/svg" viewBox="0 0 1546.24 121.24">
  <defs>
    <style>
      .cls-1 {
        font-family: Montserrat-SemiBold, Montserrat;
        font-size: 63.38px;
        font-weight: 600;
      }

      .cls-1, .cls-2 {
        fill: #fff;
      }
    </style>
  </defs>
  <g id="Camada_2-2" data-name="Camada 2">
    <g>
      <rect class="cls-2" x="385.12" y="0" width="7.95" height="121.23"/>
      <path class="cls-2" d="M493.5,59.02c0,14.92-6.21,23.89-16.56,23.89-5.52,0-9.49-2.59-10.95-7.5-3.36,4.92-8.63,7.5-15.53,7.5-11.9,0-20.7-9.06-20.7-21.99s8.8-21.82,20.7-21.82c6.04,0,11.04,2.07,14.4,6.12v-5.61h9.57v29.33c0,4.4,2.07,5.86,4.49,5.86,4.66,0,7.25-5.43,7.25-15.61,0-18.46-13.46-30.88-33.12-30.88s-33.29,13.37-33.29,32.17,13.11,32.34,32.95,32.34c5.26,0,11.47-1.12,16.73-3.8l2.33,6.9c-5.26,2.67-12.68,4.05-19.06,4.05-24.5,0-40.88-16.65-40.88-39.5s16.56-39.24,41.23-39.24,40.45,15.78,40.45,37.78ZM465.03,60.92c0-8.54-5.52-13.46-12.77-13.46s-12.77,5.18-12.77,13.46,5.26,13.63,12.77,13.63,12.77-5,12.77-13.63Z"/>
      <g>
        <path class="cls-2" d="M560.77,90.81l-.09-40.02-19.84,33.12h-5l-19.84-32.6v39.5h-10.7V30.43h9.23l23.98,40.02,23.55-40.02h9.23l.09,60.38h-10.61Z"/>
        <path class="cls-2" d="M626.83,76.83h-30.19l-5.95,13.97h-11.56l27.17-60.38h11.04l27.26,60.38h-11.73l-6.04-13.97ZM623.13,68.04l-11.39-26.39-11.3,26.39h22.68Z"/>
        <path class="cls-2" d="M661.51,39.92h-20.01v-9.49h51.23v9.49h-20.01v50.89h-11.21v-50.89Z"/>
        <path class="cls-2" d="M746.46,81.41v9.4h-45.28V30.43h44.07v9.4h-32.86v15.7h29.15v9.23h-29.15v16.65h34.07Z"/>
        <path class="cls-2" d="M758.45,64.5V30.43h11.21v33.64c0,12.42,5.61,17.77,15.35,17.77s15.27-5.35,15.27-17.77V30.43h11.04v34.07c0,17.6-9.92,27.17-26.39,27.17s-26.48-9.57-26.48-27.17Z"/>
        <path class="cls-2" d="M821.93,84.42l3.88-8.71c4.83,3.88,12.51,6.64,19.92,6.64,9.4,0,13.37-3.36,13.37-7.85,0-13.02-35.88-4.49-35.88-26.91,0-9.75,7.76-18.03,24.32-18.03,7.25,0,14.84,1.9,20.1,5.35l-3.54,8.71c-5.43-3.19-11.39-4.74-16.65-4.74-9.32,0-13.11,3.62-13.11,8.19,0,12.85,35.79,4.49,35.79,26.65,0,9.66-7.85,17.94-24.41,17.94-9.4,0-18.8-2.93-23.81-7.25Z"/>
        <path class="cls-2" d="M920.77,90.81l-12.33-17.68c-.78.09-1.55.09-2.33.09h-13.63v17.6h-11.21V30.43h24.84c15.87,0,25.7,8.11,25.7,21.48,0,9.14-4.66,15.87-12.85,19.06l13.89,19.84h-12.08ZM905.59,39.92h-13.11v24.06h13.11c9.83,0,14.92-4.49,14.92-12.08s-5.09-11.99-14.92-11.99Z"/>
        <path class="cls-2" d="M944.31,30.43h11.21v60.38h-11.21V30.43Z"/>
        <path class="cls-2" d="M1025.47,74.42c0,10.35-8.11,16.39-23.63,16.39h-30.02V30.43h28.29c14.49,0,22.25,6.12,22.25,15.7,0,6.21-3.1,10.78-7.76,13.28,6.47,2.07,10.87,7.16,10.87,15.01ZM983.04,39.23v16.65h15.87c7.76,0,12.16-2.76,12.16-8.28s-4.4-8.37-12.16-8.37h-15.87ZM1014.17,73.3c0-6.04-4.57-8.71-13.02-8.71h-18.11v17.42h18.11c8.45,0,13.02-2.67,13.02-8.71Z"/>
        <path class="cls-2" d="M1082.74,81.41v9.4h-45.28V30.43h44.07v9.4h-32.86v15.7h29.15v9.23h-29.15v16.65h34.07Z"/>
        <path class="cls-2" d="M1095.25,30.43h11.21v60.38h-11.21V30.43Z"/>
        <path class="cls-2" d="M1162.26,90.81l-12.33-17.68c-.78.09-1.55.09-2.33.09h-13.63v17.6h-11.21V30.43h24.84c15.87,0,25.7,8.11,25.7,21.48,0,9.14-4.66,15.87-12.85,19.06l13.89,19.84h-12.08ZM1147.08,39.92h-13.11v24.06h13.11c9.83,0,14.92-4.49,14.92-12.08s-5.09-11.99-14.92-11.99Z"/>
        <path class="cls-2" d="M1181.49,60.62c0-17.85,13.8-31.05,32.52-31.05s32.52,13.11,32.52,31.05-13.8,31.05-32.52,31.05-32.52-13.2-32.52-31.05ZM1235.23,60.62c0-12.33-9.06-21.22-21.22-21.22s-21.22,8.88-21.22,21.22,9.06,21.22,21.22,21.22,21.22-8.88,21.22-21.22Z"/>
        <path class="cls-2" d="M1258.43,30.43h11.21v50.89h31.57v9.49h-42.78V30.43Z"/>
        <path class="cls-2" d="M1310.09,30.43h11.21v60.38h-11.21V30.43Z"/>
        <path class="cls-2" d="M1337.6,30.43h26.39c19.58,0,32.95,12.08,32.95,30.19s-13.37,30.19-32.95,30.19h-26.39V30.43ZM1363.48,81.32c13.46,0,22.17-8.19,22.17-20.7s-8.71-20.7-22.17-20.7h-14.66v41.4h14.66Z"/>
        <path class="cls-2" d="M1454.12,81.41v9.4h-45.28V30.43h44.07v9.4h-32.86v15.7h29.15v9.23h-29.15v16.65h34.07Z"/>
        <path class="cls-2" d="M1506.13,90.81l-12.33-17.68c-.78.09-1.55.09-2.33.09h-13.63v17.6h-11.21V30.43h24.84c15.87,0,25.7,8.11,25.7,21.48,0,9.14-4.66,15.87-12.85,19.06l13.89,19.84h-12.08ZM1490.95,39.92h-13.11v24.06h13.11c9.83,0,14.92-4.49,14.92-12.08s-5.09-11.99-14.92-11.99Z"/>
        <path class="cls-2" d="M1546.24,30.43v60.38h-11.21v-50.97h-12.77v-9.4h23.98Z"/>
      </g>
      <g>
        <path class="cls-2" d="M184.83,78.36c-8.26-.1-11.4-11.5-9.24-23.62l58.02-.97c6.85-.11,12.55-4.65,12.69-11.04.12-5.38-5.11-11.47-11.86-11.49l-64.86-.25-.14,88.47-40.32.15-.91-60.34-26.93,59.92-34.05-.35-26.4-59.93-.91,60.64-39.87-.08L0,3.73l36.43-.02c8.67,0,15.18,5.87,18.75,13.2l29.25,60.06L116.31,12.76c3.17-6.38,10.06-9.16,16.96-9.19l109.24.25c14.11.03,28.35,5.69,37.45,15.61,13.09,14.27,10.16,34.92-4.46,46.13-5.49,4.21-10.68,6.33-18.66,9l31.47,44.66-31.66.04c-6.67,0-14.8-2.49-18.77-8.1l-22.95-32.45-30.11-.36Z"/>
        <text class="cls-1" transform="translate(296.39 55.5)"><tspan x="0" y="0">®</tspan></text>
      </g>
    </g>
  </g>
</svg>